HIERARCHY
ROOT hip
{
  OFFSET 0 0 0
  CHANNELS 6 Xposition Yposition Zposition Zrotation Yrotation Xrotation
  JOINT abdomen
  {
    OFFSET 0 20.6881 -0.73152
    CHANNELS 3 Zrotation Xrotation Yrotation
    JOINT chest
    {
      OFFSET 0 11.7043 -0.48768
      CHANNELS 3 Zrotation Xrotation Yrotation
      JOINT neck
      {
        OFFSET 0 22.1894 -2.19456
        CHANNELS 3 Zrotation Xrotation Yrotation
        JOINT head
        {
          OFFSET -0.24384 7.07133 1.2192
          CHANNELS 3 Zrotation Xrotation Yrotation
          JOINT leftEye
          {
            OFFSET 4.14528 8.04674 8.04672
            CHANNELS 3 Zrotation Xrotation Yrotation
            End Site
            {
              OFFSET 1 0 0
            }
          }
          JOINT rightEye
          {
            OFFSET -3.6576 8.04674 8.04672
            CHANNELS 3 Zrotation Xrotation Yrotation
            End Site
            {
              OFFSET 1 0 0
            }
          }
        }
      }
      JOINT rCollar
      {
        OFFSET -2.68224 19.2634 -4.8768
        CHANNELS 3 Zrotation Xrotation Yrotation
        JOINT rShldr
        {
          OFFSET -8.77824 -1.95073 1.46304
          CHANNELS 3 Zrotation Xrotation Yrotation
          JOINT rForeArm
          {
            OFFSET -28.1742 -1.7115 0.48768
            CHANNELS 3 Zrotation Xrotation Yrotation
            JOINT rHand
            {
              OFFSET -22.5879 0.773209 7.07136
              CHANNELS 3 Zrotation Xrotation Yrotation
              JOINT rThumb1
              {
                OFFSET -1.2192 -0.487915 3.41376
                CHANNELS 3 Zrotation Xrotation Yrotation
                JOINT rThumb2
                {
                  OFFSET -3.37035 -0.52449 3.41376
                  CHANNELS 3 Zrotation Xrotation Yrotation
                  End Site
                  {
                    OFFSET -1.78271 -1.18214 1.43049
                  }
                }
              }
              JOINT rIndex1
              {
                OFFSET -7.75947 0.938293 5.60832
                CHANNELS 3 Zrotation Xrotation Yrotation
                JOINT rIndex2
                {
                  OFFSET -2.54057 -0.884171 1.56538
                  CHANNELS 3 Zrotation Xrotation Yrotation
                  End Site
                  {
                    OFFSET -1.62519 -0.234802 1.16502
                  }
                }
              }
              JOINT rMid1
              {
                OFFSET -8.24714 1.18213 3.41376
                CHANNELS 3 Zrotation Xrotation Yrotation
                JOINT rMid2
                {
                  OFFSET -3.10165 -0.590103 1.0647
                  CHANNELS 3 Zrotation Xrotation Yrotation
                  End Site
                  {
                    OFFSET -2.48547 -0.328903 0.83742
                  }
                }
              }
              JOINT rRing1
              {
                OFFSET -8.82822 0.546677 1.51678
                CHANNELS 3 Zrotation Xrotation Yrotation
                JOINT rRing2
                {
                  OFFSET -2.60934 -0.819778 -0.0198488
                  CHANNELS 3 Zrotation Xrotation Yrotation
                  End Site
                  {
                    OFFSET -2.33842 -0.294052 0.168128
                  }
                }
              }
              JOINT rPinky1
              {
                OFFSET -8.27202 -0.0477905 -0.4584
                CHANNELS 3 Zrotation Xrotation Yrotation
                JOINT rPinky2
                {
                  OFFSET -1.82734 -0.647385 -0.700984
                  CHANNELS 3 Zrotation Xrotation Yrotation
                  End Site
                  {
                    OFFSET -1.69225 -0.51767 -0.607171
                  }
                }
              }
            }
          }
        }
      }
      JOINT lCollar
      {
        OFFSET 2.68224 19.2634 -4.8768
        CHANNELS 3 Zrotation Xrotation Yrotation
        JOINT lShldr
        {
          OFFSET 8.77824 -1.95073 1.46304
          CHANNELS 3 Zrotation Xrotation Yrotation
          JOINT lForeArm
          {
            OFFSET 28.1742 -1.7115 0.48768
            CHANNELS 3 Zrotation Xrotation Yrotation
            JOINT lHand
            {
              OFFSET 22.5879 0.773209 7.07136
              CHANNELS 3 Zrotation Xrotation Yrotation
              JOINT lThumb1
              {
                OFFSET 1.2192 -0.487915 3.41376
                CHANNELS 3 Zrotation Xrotation Yrotation
                JOINT lThumb2
                {
                  OFFSET 3.37035 -0.52449 3.41376
                  CHANNELS 3 Zrotation Xrotation Yrotation
                  End Site
                  {
                    OFFSET 1.78271 -1.18214 1.43049
                  }
                }
              }
              JOINT lIndex1
              {
                OFFSET 7.75947 0.938293 5.60832
                CHANNELS 3 Zrotation Xrotation Yrotation
                JOINT lIndex2
                {
                  OFFSET 2.54057 -0.884171 1.56538
                  CHANNELS 3 Zrotation Xrotation Yrotation
                  End Site
                  {
                    OFFSET 1.62519 -0.234802 1.16502
                  }
                }
              }
              JOINT lMid1
              {
                OFFSET 8.24714 1.18213 3.41376
                CHANNELS 3 Zrotation Xrotation Yrotation
                JOINT lMid2
                {
                  OFFSET 3.10165 -0.590103 1.0647
                  CHANNELS 3 Zrotation Xrotation Yrotation
                  End Site
                  {
                    OFFSET 2.48547 -0.328903 0.83742
                  }
                }
              }
              JOINT lRing1
              {
                OFFSET 8.82822 0.546677 1.51678
                CHANNELS 3 Zrotation Xrotation Yrotation
                JOINT lRing2
                {
                  OFFSET 2.60934 -0.819778 -0.0198488
                  CHANNELS 3 Zrotation Xrotation Yrotation
                  End Site
                  {
                    OFFSET 2.33842 -0.294052 0.168128
                  }
                }
              }
              JOINT lPinky1
              {
                OFFSET 8.27202 -0.0477905 -0.4584
                CHANNELS 3 Zrotation Xrotation Yrotation
                JOINT lPinky2
                {
                  OFFSET 1.82734 -0.647385 -0.700984
                  CHANNELS 3 Zrotation Xrotation Yrotation
                  End Site
                  {
                    OFFSET 1.69225 -0.51767 -0.607171
                  }
                }
              }
            }
          }
        }
      }
    }
  }
  JOINT rButtock
  {
    OFFSET -8.77824 4.35084 1.2192
    CHANNELS 3 Zrotation Xrotation Yrotation
    JOINT rThigh
    {
      OFFSET 0 -1.70687 -2.19456
      CHANNELS 3 Zrotation Xrotation Yrotation
      JOINT rShin
      {
        OFFSET 0 -36.8199 0.73152
        CHANNELS 3 Zrotation Xrotation Yrotation
        JOINT rFoot
        {
          OFFSET 0.73152 -45.1104 -5.12064
          CHANNELS 3 Zrotation Xrotation Yrotation
          End Site
          {
            OFFSET -1.1221 -3.69964 12.103
          }
        }
      }
    }
  }
  JOINT lButtock
  {
    OFFSET 8.77824 4.35084 1.2192
    CHANNELS 3 Zrotation Xrotation Yrotation
    JOINT lThigh
    {
      OFFSET 0 -1.70687 -2.19456
      CHANNELS 3 Zrotation Xrotation Yrotation
      JOINT lShin
      {
        OFFSET 0 -36.8199 0.73152
        CHANNELS 3 Zrotation Xrotation Yrotation
        JOINT lFoot
        {
          OFFSET -0.73152 -45.1104 -5.12064
          CHANNELS 3 Zrotation Xrotation Yrotation
          End Site
          {
            OFFSET 1.1221 -3.69964 12.103
          }
        }
      }
    }
  }
}
MOTION
Frames:	4
Frame Time:	0.00833333
-1.46871 53.9036 -191.292 0.0 0.0 0.0 -1.74426 -0.003245 -0.0476269 -0.481538 0.00120967 -0.0833906 3.48403e-14 -1.59028e-15 5.2181e-16 1.0403e-13 3.18055e-15 1.51418e-15 -0.0 0.0 0.0 -0.0 0.0 0.0 1.7194e-14 -2.01891e-17 3.47873e-16 3.65456e-13 -5.8393e-16 7.55382e-15 6.24134e-12 -1.89004e-12 4.77083e-14 7.15621e-11 1.80795e-12 1.17044e-12 1.68782e-10 -1.74597e-13 2.6494e-12 2.91471e-10 -2.98972e-13 4.55455e-12 1.68787e-10 -1.74135e-13 2.64304e-12 7.73091 5.47488 0.417314 1.68784e-10 -1.73738e-13 2.64622e-12 2.90554 0.965183 0.102902 1.68788e-10 -1.73937e-13 2.64066e-12 10.2786 0.731801 0.0259123 1.68777e-10 -1.73738e-13 2.64622e-12 2.22167 -0.733487 -0.20892 1.72963e-14 -2.13538e-17 1.49089e-16 3.59129e-13 -6.95746e-16 5.36719e-15 6.26077e-12 1.85665e-12 4.13472e-14 7.15397e-11 -1.94344e-12 1.17362e-12 1.68776e-10 -1.84587e-13 2.6335e-12 2.91473e-10 -3.11694e-13 4.55058e-12 1.68769e-10 -1.82087e-13 2.64304e-12 -7.73091 5.47488 -0.417314 1.68776e-10 -1.83876e-13 2.63668e-12 -2.90554 0.965183 -0.102902 1.68767e-10 -1.84075e-13 2.63588e-12 -10.2786 0.731801 -0.0259123 1.68771e-10 -1.85665e-13 2.63032e-12 -2.22167 -0.733487 0.20892 -2.03217e-16 0.0 -3.88251e-19 -0.871408 -1.92409 -0.00259269 -0.00879249 -2.07862 -0.0723416 -0.451535 3.99793 0.131361 2.03217e-16 0.0 3.88251e-19 -1.78928 -6.94298 0.172934 -0.00356082 7.01262 -0.0919296 0.488325 -0.074349 -0.053917
-6.46619 51.0481 -195.413 -19.1869 -28.0265 11.783 2.54499 2.53563 0.920674 0.201821 -1.96089 0.232585 0.270604 3.61502 1.96396 0.389365 -6.55532 3.99072 -0.0 0.0 0.0 -0.0 0.0 0.0 1.86172e-13 1.53863e-13 -2.11426e-14 19.1397 16.8078 -9.39338 -26.5943 -24.235 13.8912 0.288046 -11.9546 -1.55107 -4.90467e-10 9.96549e-10 -3.00849e-10 -8.36199e-10 1.66062e-09 -5.39411e-10 -4.90461e-10 9.96551e-10 -3.00852e-10 7.73091 5.47488 0.417314 -4.90464e-10 9.96547e-10 -3.0085e-10 2.90554 0.965183 0.102902 -4.90461e-10 9.96547e-10 -3.00853e-10 10.2786 0.731801 0.0259123 -4.90473e-10 9.96547e-10 -3.00846e-10 2.22167 -0.733487 -0.20892 1.86199e-13 1.53862e-13 -2.1296e-14 -14.902 4.1714 -10.5894 3.62319 -1.5432 -5.766 -0.285862 11.9088 -1.54609 3.6909e-10 -6.59567e-09 -1.62396e-09 5.79829e-10 -1.12614e-08 -2.80721e-09 3.69084e-10 -6.59567e-09 -1.62395e-09 -7.73091 5.47488 -0.417314 3.69091e-10 -6.59567e-09 -1.62396e-09 -2.90554 0.965183 -0.102902 3.69081e-10 -6.59567e-09 -1.62396e-09 -10.2786 0.731801 -0.0259123 3.69088e-10 -6.59567e-09 -1.62396e-09 -2.22167 -0.733487 0.20892 -2.03217e-16 0.0 -3.88251e-19 -3.84495 1.79222 -0.780259 0.334252 7.8407 0.535945 -0.101425 -2.68312 -7.87129 2.03217e-16 0.0 3.88251e-19 8.91468 -25.484 10.2437 0.217299 26.3419 -0.339332 0.0323185 0.329231 -1.9783
-6.49202 51.0468 -195.386 -19.2366 -28.1237 11.8806 6.98354 5.21822 1.95087 0.947748 -4.03585 0.567807 0.285176 7.42207 4.06661 1.81578 -13.3777 8.38559 -0.0 0.0 0.0 -0.0 0.0 0.0 3.72196e-13 3.21277e-13 -6.48535e-14 46.2655 32.9731 -22.2123 -38.0408 -44.4408 37.8998 -0.174627 -24.5641 -3.43274 -1.15281e-09 1.96227e-09 -6.23469e-10 -1.96844e-09 3.2657e-09 -1.11665e-09 -1.1528e-09 1.96228e-09 -6.23469e-10 7.73091 5.47488 0.417314 -1.1528e-09 1.96227e-09 -6.23468e-10 2.90554 0.965183 0.102902 -1.1528e-09 1.96227e-09 -6.23468e-10 10.2786 0.731801 0.0259123 -1.15281e-09 1.96227e-09 -6.2346e-10 2.22167 -0.733487 -0.20892 3.72141e-13 3.21276e-13 -6.4956e-14 -29.0048 8.10893 -21.9541 7.11918 -3.12353 -11.8774 0.173152 24.4665 -3.41922 6.12951e-10 -1.34006e-08 -3.27819e-09 9.4208e-10 -2.28864e-08 -5.66824e-09 6.12945e-10 -1.34006e-08 -3.27819e-09 -7.73091 5.47488 -0.417314 6.12953e-10 -1.34006e-08 -3.2782e-09 -2.90554 0.965183 -0.102902 6.12941e-10 -1.34006e-08 -3.27819e-09 -10.2786 0.731801 -0.0259123 6.12951e-10 -1.34006e-08 -3.2782e-09 -2.22167 -0.733487 0.20892 -2.03217e-16 0.0 -3.88251e-19 -6.88014 5.71539 -1.61074 0.45756 18.3283 1.2311 -1.7558 -9.40082 -16.5421 2.03217e-16 0.0 3.88251e-19 29.4727 -42.7526 26.0653 0.715892 46.7714 -0.77244 -0.420697 0.755662 -4.01675
-6.52031 51.0432 -195.333 -19.2341 -28.0528 11.9106 10.8643 7.60486 2.87992 1.63374 -5.88446 0.868706 0.0584042 10.7936 5.98645 4.02264 -19.2732 12.6112 -0.0 0.0 0.0 -0.0 0.0 0.0 5.24129e-13 4.6163e-13 -6.41236e-14 78.5113 43.8943 -38.9961 -31.2575 -49.5076 71.2249 -1.45718 -35.746 -5.61198 -1.80896e-09 2.99e-09 -9.07845e-10 -3.09154e-09 4.98245e-09 -1.62734e-09 -1.80896e-09 2.99e-09 -9.07842e-10 7.73091 5.47488 0.417314 -1.80896e-09 2.98999e-09 -9.07843e-10 2.90554 0.965183 0.102902 -1.80896e-09 2.98999e-09 -9.0784e-10 10.2786 0.731801 0.0259123 -1.80897e-09 2.98999e-09 -9.07831e-10 2.22167 -0.733487 -0.20892 5.24005e-13 4.6163e-13 -6.41861e-14 -40.2765 10.8081 -32.324 9.95112 -4.44239 -17.3454 1.44402 35.61 -5.58533 7.69718e-10 -1.97867e-08 -4.87714e-09 1.15654e-09 -3.37837e-08 -8.43072e-09 7.69712e-10 -1.97867e-08 -4.87714e-09 -7.73091 5.47488 -0.417314 7.69721e-10 -1.97866e-08 -4.87715e-09 -2.90554 0.965183 -0.102902 7.69707e-10 -1.97867e-08 -4.87714e-09 -10.2786 0.731801 -0.0259123 7.6972e-10 -1.97866e-08 -4.87714e-09 -2.22167 -0.733487 0.20892 -2.03217e-16 0.0 -3.88251e-19 -9.48638 9.21762 -2.365 0.323265 27.6665 1.96176 -4.97321 -14.7124 -24.7114 2.03217e-16 0.0 3.88251e-19 59.8855 -52.7257 49.3855 1.79451 64.9918 -1.72655 -0.798505 1.1311 -5.8281
